<svg data-v-423bf9ae="" xmlns="http://www.w3.org/2000/svg" viewBox="0 0 337 96" class="iconLeft"><!----><!----><!----><g data-v-423bf9ae="" id="861e25fe-5884-4719-a368-2ff7a0dab4fc" fill="black" transform="matrix(5.035537242889404,0,0,5.035537242889404,117.13327026367188,12.786033630371094)"><path d="M6.50 1.13L1.12 1.13C0.92 1.13 0.81 1.41 0.81 1.72L0.81 9.63C0.81 10.19 2.44 10.19 2.44 9.63L2.44 6.22L5.38 6.22C5.94 6.22 5.94 4.77 5.38 4.77L2.45 4.77L2.45 2.58L5.80 2.58C6.45 2.58 7.15 1.13 6.50 1.13ZM14.24 8.48C14.11 8.54 14.01 8.57 13.92 8.57C13.64 8.57 13.50 8.37 13.50 7.97L13.50 3.78C13.50 3.22 11.86 3.22 11.86 3.78L11.86 7.64C11.26 8.34 10.65 8.61 10.09 8.61C9.25 8.61 8.79 8.15 8.79 7.13L8.79 3.54C8.79 2.88 7.17 3.58 7.17 4.24L7.17 7.70C7.17 9.16 8.02 10.04 9.42 10.04C10.37 10.04 11.26 9.70 11.94 9.00C12.12 9.76 12.59 10.04 13.15 10.04C13.50 10.04 13.86 9.94 14.24 9.80C14.83 9.53 14.80 8.22 14.24 8.48ZM22.54 8.57C22.41 8.62 22.32 8.64 22.22 8.64C21.94 8.64 21.80 8.44 21.80 8.04L21.80 7.52L21.80 5.73C21.80 4.26 20.94 3.37 19.54 3.37C18.61 3.37 17.74 3.71 17.05 4.38L16.83 3.67C16.69 3.29 15.46 3.25 15.46 3.78L15.46 9.63C15.46 10.19 17.09 10.19 17.09 9.63L17.09 5.77C17.70 5.08 18.30 4.82 18.86 4.82C19.70 4.82 20.16 5.26 20.16 6.30L20.16 7.20L20.16 8.29C20.16 9.65 20.72 10.11 21.45 10.11C21.80 10.11 22.16 10.01 22.54 9.87C23.13 9.62 23.10 8.29 22.54 8.57ZM30.90 2.79C30.06 2.80 29.48 3.23 29.09 3.78C28.59 3.51 27.90 3.36 27.08 3.36C25.16 3.36 24.02 4.17 24.02 5.54C24.02 6.29 24.36 6.86 24.99 7.24C24.42 7.48 24.04 7.91 24.04 8.55C24.04 9.02 24.25 9.31 24.57 9.51C24.23 9.81 24.04 10.22 24.04 10.74C24.04 11.91 24.99 12.87 27.24 12.87C29.25 12.87 30.31 11.90 30.31 10.46C30.31 8.78 28.28 8.71 26.85 8.65C26.19 8.64 25.69 8.55 25.69 8.12C25.69 7.88 25.86 7.73 26.11 7.62C26.40 7.67 26.73 7.70 27.08 7.70C29.02 7.70 30.13 6.90 30.13 5.54C30.13 5.12 30.03 4.76 29.82 4.45C30.07 4.31 30.32 4.26 30.65 4.24C31.15 4.24 31.40 2.77 30.90 2.79ZM27.08 6.51C26.19 6.51 25.68 6.16 25.68 5.54C25.68 4.90 26.19 4.55 27.08 4.55C27.97 4.55 28.49 4.90 28.49 5.54C28.49 6.16 27.97 6.51 27.08 6.51ZM26.04 9.86C26.15 9.86 26.49 9.87 26.73 9.88C27.73 9.91 28.67 9.91 28.67 10.64C28.67 11.27 28.11 11.68 27.24 11.68C26.29 11.68 25.69 11.27 25.69 10.63C25.69 10.26 25.82 10.01 26.04 9.86ZM32.58 9.63C32.58 10.19 34.23 10.19 34.23 9.63L34.23 1.22C34.23 0.56 32.58 1.26 32.58 1.92ZM39.17 1.04C37.93 1.04 37.03 1.18 36.61 1.43C36.43 1.53 36.34 1.65 36.34 1.78L36.34 9.31C36.34 9.42 36.41 9.51 36.54 9.60C36.95 9.88 37.94 10.05 39.35 10.05C41.99 10.05 43.48 8.43 43.48 5.54C43.48 2.66 41.93 1.04 39.17 1.04ZM39.26 8.61C38.70 8.61 38.26 8.58 37.98 8.50L38.00 2.58C38.28 2.49 38.68 2.46 39.19 2.46C40.96 2.46 41.82 3.49 41.82 5.54C41.82 7.60 40.99 8.61 39.26 8.61Z"></path></g><!----><g data-v-423bf9ae="" id="6d85adff-05e4-4a44-8146-dfcfcaf58871" transform="matrix(1.0284119844436646,0,0,1.0284119844436646,-0.6309128999710083,-2.69122314453125)" stroke="none" fill="black"><path d="M26.002 17.023c19.352-32.546 59.228 2.345 70.664 12.314 11.435 9.97-18.18 7.038-18.18 7.038-26.096 1.173-68.024 29.026-68.024 29.026C-8.597 76.252 6.65 49.569 6.65 49.569l19.352-32.546zM13.833 47.37s-7.184 4.545-2.785 7.036c0 0 5.277 1.76 4.544-5.57.001 0-.184-2.631-1.759-1.466zM36.63 15.703c1.832.44 5.791-2.052 2.712-5.278-3.079-3.225-5.424 1.906-5.424 1.906-.585 2.932.88 2.932 2.712 3.372zM50.084 3.746s.745 4.348 5.532 3.317c0 0 1.182-.33 1.911-1.924 0 0-5.208-1.399-7.443-1.393zM38.243 36.741s-.366 3.373 3.226 2.273.807-3.582 0-3.293c-.807.287-3.372-.243-3.226 1.02zM54.81 23.84c.953-.586 4.91-.146 2.126-3.005-2.786-2.859-4.252 0-4.252 0-.293 1.759 1.173 3.591 2.126 3.005zm20.377-4.692c-1.612-3.885-4.618-2.052-4.618-2.052-1.979 1.466 6.232 5.937 4.618 2.052zm-51.678 9.676s-6.817 2.053-2.639 5.645 6.67.513 6.817-1.467c.147-1.979-1.026-5.131-4.178-4.178zm46.254 2.639s-3.298 3.225 1.979 3.738c5.278.514 6.801-2.273 3.656-3.738-3.142-1.465-4.99-.834-5.635 0zm20.2-7.82s1.238 5.302 4.703 3.958c0 0-4.027-3.409-4.703-3.958z"></path><path d="M38.232 49.535S54.861 86.801 37.133 96l15.513-2.026L48.432 96l12.19-2.331L57.49 96l11.255-2.634L66.465 96l10.559-3.543L75.398 96h6.899S61.349 45.366 68.744 37.804c.001 0-16.098 3.115-30.512 11.731z"></path></g><!----></svg>